<?xml version="1.0" encoding="utf-8"?>
<!-- Generator: Adobe Illustrator 19.0.1, SVG Export Plug-In . SVG Version: 6.00 Build 0)  -->
<svg version="1.1" id="Layer_1" xmlns="http://www.w3.org/2000/svg" xmlns:xlink="http://www.w3.org/1999/xlink" x="0px" y="0px"
	 viewBox="0 0 413.4286 413.4286" style="enable-background:new 0 0 413.4286 413.4286;" xml:space="preserve">
<style type="text/css">
	.st0{fill:#FFFFFF;stroke:#FECF4A;stroke-width:17;stroke-miterlimit:10;}
	.st1{fill:#FECF4A;}
	.st2{fill:#34C3FF;}
</style>
<g>
	<g>
		<circle class="st0" cx="165.0613" cy="177.2476" r="130.3868"/>
		<path class="st1" d="M277.9359,240.6937l112.2417,95.7758c10.5048,8.9637,11.754,24.746,2.7903,35.2507l0,0
			c-8.9637,10.5048-24.746,11.754-35.2507,2.7903l-112.2417-95.7758"/>
	</g>
	<circle class="st0" cx="165.0588" cy="177.2451" r="130.3868"/>
	<g>
		<path class="st2" d="M158.0586,109.6093V68.4742c-10.0859,0.6371-19.8,2.6392-28.9608,5.8267
			c-6.0183,11.7233-10.9882,25.3373-14.7239,40.1713C129.3193,111.735,144.2722,110.0994,158.0586,109.6093z"/>
		<path class="st2" d="M215.5017,113.5222c-3.7075-14.465-8.5918-27.7488-14.4812-39.2211
			c-9.161-3.1877-18.8755-5.1898-28.9619-5.8269v41.0256C186.9143,109.7656,201.5297,111.1502,215.5017,113.5222z"/>
		<path class="st2" d="M109.7927,83.2197c-17.6633,10.361-32.1587,25.5344-41.6891,43.7223
			c9.8832-3.681,20.4294-6.7883,31.1917-9.3195C102.0421,105.405,105.5711,93.8382,109.7927,83.2197z"/>
		<path class="st2" d="M96.3577,132.7217c-0.8269,0.2154-1.6572,0.4259-2.4788,0.6483
			c-12.3149,3.3336-23.5818,7.3557-33.3301,11.8482c-2.9299,9.455-4.611,19.4589-4.853,29.8188h36.8257
			C92.78,160.58,94.1012,146.3523,96.3577,132.7217z"/>
		<path class="st2" d="M97.2833,231.5942c-2.6141-14.5692-4.1747-29.1176-4.6525-42.5572H56.2517
			c1.1479,11.0898,3.9537,21.6866,8.1633,31.541c8.8209,3.801,18.7455,7.2244,29.4648,10.126
			C95.0079,231.0093,96.1455,231.302,97.2833,231.5942z"/>
		<path class="st2" d="M261.4102,125.7973c-9.5337-17.6808-23.7927-32.434-41.0845-42.5772
			c4.0945,10.2992,7.5435,21.4854,10.2532,33.2976C241.4504,119.0117,251.8013,122.1248,261.4102,125.7973z"/>
		<path class="st2" d="M223.593,175.037c-0.2981-16.1202-1.9517-31.8954-4.7913-46.7421
			c-14.8469-2.8396-30.6226-4.4933-46.7432-4.7914v51.5335H223.593z"/>
		<path class="st2" d="M106.632,189.037c0.5342,14.9499,2.4135,30.6528,5.4801,45.9465
			c15.2936,3.0668,30.9967,4.9465,45.9465,5.4807V189.037H106.632z"/>
		<path class="st2" d="M237.5967,175.037h36.8252c-0.2498-10.6846-2.0352-20.9882-5.1375-30.7038
			c-10.6416-5.1156-22.6976-9.403-35.7101-12.7382C235.9463,145.5667,237.3309,160.1817,237.5967,175.037z"/>
		<path class="st2" d="M172.0586,240.571c15.7588-0.2914,31.189-1.8768,45.7434-4.6005
			c3.1851-15.6048,5.1387-31.6613,5.6843-46.9335h-51.4277V240.571z"/>
		<path class="st2" d="M232.624,232.722c11.7548-2.9603,22.7399-6.6969,32.6287-11.1155c4.458-10.1447,7.4252-21.092,8.6133-32.5695
			h-36.3787C236.9972,202.8233,235.3613,217.7765,232.624,232.722z"/>
		<path class="st2" d="M158.0586,123.6103c-15.272,0.5457-31.3284,2.4994-46.9331,5.6843
			c-2.7236,14.5541-4.3091,29.9839-4.6003,45.7423h51.5334V123.6103z"/>
		<path class="st2" d="M214.3746,250.7384c-13.6309,2.2565-27.8588,3.5776-42.316,3.8362v32.2333
			c11.5254-0.728,22.5671-3.2349,32.8503-7.259c3.2791-8.0179,6.2535-16.861,8.8176-26.3327
			C213.9489,252.3949,214.1593,251.5649,214.3746,250.7384z"/>
		<path class="st2" d="M74.8374,239.5144c8.474,12.3326,19.4094,22.8389,32.0996,30.8135
			c-2.5043-7.6378-4.6899-15.5703-6.5509-23.6176C91.6575,244.6919,83.0657,242.2891,74.8374,239.5144z"/>
		<path class="st2" d="M223.1814,270.3275c12.2448-7.6948,22.8596-17.744,31.202-29.5195
			c-7.9061,2.7032-16.244,5.0445-24.9098,6.9928C227.6689,255.4738,225.5721,263.0355,223.1814,270.3275z"/>
		<path class="st2" d="M115.5015,249.8128c0.2921,1.1378,0.5847,2.2753,0.8901,3.4034c2.5641,9.4718,5.5386,18.315,8.8177,26.3329
			c10.2828,4.024,21.3242,6.5308,32.8492,7.2588v-32.3427C144.619,253.9874,130.0706,252.4268,115.5015,249.8128z"/>
	</g>
	<path class="st2" d="M374.3218,229.6297l11.4934,2.5283c3.0987,0.6816,3.0987,5.1,0,5.7816l-11.4934,2.5283
		c-9.968,2.1927-17.7534,9.978-19.9461,19.9461l-2.5283,11.4934c-0.6816,3.0987-5.1,3.0987-5.7816,0l-2.5283-11.4934
		c-2.1927-9.968-9.978-17.7534-19.9461-19.9461l-11.4934-2.5283c-3.0987-0.6816-3.0987-5.1,0-5.7816l11.4934-2.5283
		c9.968-2.1927,17.7533-9.978,19.9461-19.9461l2.5283-11.4934c0.6816-3.0987,5.1-3.0987,5.7816,0l2.5283,11.4934
		C356.5685,219.6517,364.3538,227.437,374.3218,229.6297z"/>
	<path class="st2" d="M40.2018,78.1209l5.0356,1.1077c1.3576,0.2987,1.3576,2.2345,0,2.5331l-5.0356,1.1077
		c-4.3673,0.9607-7.7783,4.3717-8.739,8.739l-1.1077,5.0356c-0.2986,1.3576-2.2345,1.3576-2.5331,0l-1.1077-5.0356
		c-0.9607-4.3673-4.3717-7.7783-8.739-8.739l-5.0356-1.1077c-1.3576-0.2986-1.3576-2.2345,0-2.5331l5.0356-1.1077
		c4.3673-0.9607,7.7783-4.3717,8.739-8.739l1.1077-5.0356c0.2986-1.3576,2.2345-1.3576,2.5331,0l1.1077,5.0356
		C32.4235,73.7492,35.8345,77.1602,40.2018,78.1209z"/>
</g>
</svg>
